<svg width="140" height="140" viewBox="0 0 140 140" fill="none" xmlns="http://www.w3.org/2000/svg">
<g filter="url(#filter0_d_96_16)">
<rect x="4" width="132" height="132" rx="32" fill="white" fill-opacity="0.39" shape-rendering="crispEdges"/>
</g>
<path d="M99.9453 69.634H95.9785C95.3343 71.968 94.4115 74.182 93.2281 76.2343L96.8953 79.8985C99.2412 82.2444 99.2412 86.0494 96.8953 88.3953L94.7711 90.5195C92.4252 92.8654 88.6202 92.8654 86.2743 90.5195L82.5831 86.8314C80.5368 87.9968 78.3317 88.9046 76.0098 89.5368V93.3837C76.0098 96.7004 73.3223 99.3908 70.0027 99.3908H67.0007C63.684 99.3908 60.9906 96.7034 60.9906 93.3837V89.5368C58.6716 88.9046 56.4635 87.9938 54.4172 86.8314L50.7291 90.5195C48.3862 92.8654 44.5812 92.8654 42.2353 90.5195L40.1081 88.3953C37.7622 86.0494 37.7622 82.2444 40.1081 79.8985L43.7753 76.2343C42.5918 74.179 41.669 71.968 41.0219 69.634H37.0581C33.7385 69.634 31.051 66.9466 31.051 63.6299V60.6249C31.051 57.3083 33.7385 54.6178 37.0581 54.6178H40.9769C41.5971 52.3079 42.484 50.1087 43.6344 48.0684L40.1081 44.5451C37.7622 42.1992 37.7622 38.3942 40.1081 36.0483L42.2323 33.9271C44.5782 31.5812 48.3832 31.5812 50.7261 33.9271L54.1806 37.3815C56.2958 36.1501 58.5788 35.1914 60.9876 34.5353V30.4966C60.9906 27.177 63.684 24.4895 67.0007 24.4895H70.0027C73.3193 24.4895 76.0098 27.177 76.0098 30.4966V34.5323C78.4246 35.1914 80.7046 36.1501 82.8168 37.3815L86.2713 33.9271C88.6172 31.5812 92.4222 31.5812 94.7681 33.9271L96.8923 36.0483C99.2382 38.3942 99.2382 42.1992 96.8923 44.5451L93.3689 48.0684C94.5194 50.1087 95.4062 52.3079 96.0294 54.6208H99.9483C103.265 54.6208 105.955 57.3113 105.955 60.6279V63.6329C105.952 66.9466 103.265 69.634 99.9453 69.634ZM68.5017 45.7016C59.3787 45.7016 51.9814 53.0988 51.9814 62.2218C51.9814 71.3448 59.3787 78.742 68.5017 78.742C77.6247 78.742 85.0219 71.3448 85.0219 62.2218C85.0219 53.0988 77.6247 45.7016 68.5017 45.7016ZM68.5017 69.5411C64.3551 69.5411 60.9906 66.1826 60.9906 62.033C60.9906 57.8865 64.3551 54.5249 68.5017 54.5249C72.6482 54.5249 76.0098 57.8865 76.0098 62.033C76.0098 66.1826 72.6482 69.5411 68.5017 69.5411Z" fill="black"/>
<defs>
<filter id="filter0_d_96_16" x="0" y="0" width="140" height="140" filterUnits="userSpaceOnUse" color-interpolation-filters="sRGB">
<feFlood flood-opacity="0" result="BackgroundImageFix"/>
<feColorMatrix in="SourceAlpha" type="matrix" values="0 0 0 0 0 0 0 0 0 0 0 0 0 0 0 0 0 0 127 0" result="hardAlpha"/>
<feOffset dy="4"/>
<feGaussianBlur stdDeviation="2"/>
<feComposite in2="hardAlpha" operator="out"/>
<feColorMatrix type="matrix" values="0 0 0 0 0 0 0 0 0 0 0 0 0 0 0 0 0 0 0.25 0"/>
<feBlend mode="normal" in2="BackgroundImageFix" result="effect1_dropShadow_96_16"/>
<feBlend mode="normal" in="SourceGraphic" in2="effect1_dropShadow_96_16" result="shape"/>
</filter>
</defs>
</svg>
